<svg xmlns="http://www.w3.org/2000/svg" viewBox="0 0 1920 1080"><defs><style>.cls-1{fill:#86bdea;}.cls-2{fill:#fff;}.cls-3{fill:#e7f3fd;}.cls-4{fill:none;}.cls-5{fill:#e8f5fe;}.cls-6{fill:#d7e9fd;}.cls-7{fill:#e3f2ff;}.cls-8{fill:#cee9fc;}.cls-9{fill:#e7f1fa;}.cls-10{fill:#e5f2fb;}</style></defs><g id="backgroung"><rect id="rectangle" class="cls-1" width="1920" height="1080"/></g><g id="nuage1"><path class="cls-2" d="M1066.5,252.5c-1.24-2.19-5.39-1.14-10-2-4-.74-5.61-2.39-10-5-8.16-4.85-19.87-12.35-26-8-3.17,2.25-4.69,7.8-9,8-2.35.11-3.27-1.47-6-1-3.31.57-4.2,3.28-6,3-2.17-.34-2.34-4.52-4-8-4.23-8.88-18.78-14.55-28-11-4.37,1.69-6.66,5.1-9,4s-1-4.45-3-8c-3.92-6.81-17.43-9.7-25-5-3.39,2.11-5.55,5.71-7,5-1.14-.56-.84-3.3-.77-4.11.64-8.29-8.48-18.82-15.23-23.89-11.6-8.7-30-11.58-40-4-5,3.77-4.47,7.52-9,9-8.44,2.75-13.51-9.21-26-11-14.06-2-30.85,9.82-35,23-2.36,7.48,1.09,9.92-2,14-7.81,10.33-34.31.61-39,10-1.23,2.46-.08,4.45-2,6-3.6,2.9-9.32-2.76-16,0-.34.14-4.65,2-6,6-.78,2.31-.07,3.84.17,5.19l.83-.19c14.42-3.72,12.21-9.19,27-12,20.48-3.89,38,4.11,43-4,.88-1.42.4-1.76,1.18-4.45,4.51-15.48,27-26.6,33-21.66,3.76,3.12-.26,11.7,2.86,13.11,2.77,1.25,6.57-5.26,15-10,6.62-3.72,12.63-4.4,18-5,6-.67,27.9-3.14,34.76,7.54,5.86,9.13-2.27,23.22,2.24,25.46,3.34,1.66,10.09-4.94,12.1-3,1,1-.21,3.41.72,3.87,1.37.68,3.4-2.72,6.59-4.7,7.13-4.43,19.85-1.71,23.54,4.7,1.92,3.34.74,6.56,2.83,7.54s4.76-1.67,8.47-3.77c8.58-4.86,21-5.37,24.75-.67,2.82,3.54-1,7.89,1.62,11,3.24,3.87,11.43.05,23.54-1.89,4.47-.71,28.86-4.59,38.89,4.64,7.09-1.57,12.18-3.48,13-5.78A3.84,3.84,0,0,0,1066.5,252.5Z" transform="translate(0 0)"/><path class="cls-3" d="M1014.66,256.64c-12.11,1.94-20.3,5.76-23.54,1.89-2.63-3.14,1.2-7.49-1.62-11-3.74-4.7-16.17-4.19-24.75.67-3.71,2.1-6.31,4.78-8.47,3.77s-.91-4.2-2.83-7.54c-3.69-6.41-16.41-9.13-23.54-4.7-3.19,2-5.22,5.38-6.59,4.7-.93-.46.31-2.86-.72-3.87-2-2-8.76,4.63-12.1,3-4.51-2.24,3.62-16.33-2.24-25.46-6.86-10.68-28.79-8.21-34.76-7.54-5.37.6-11.38,1.28-18,5-8.43,4.74-12.23,11.25-15,10-3.12-1.41.9-10-2.86-13.11-6-4.94-28.45,6.18-33,21.66-.78,2.69-.3,3-1.18,4.45-5,8.11-22.52.11-43,4-14.79,2.81-12.58,8.28-27,12l-.83.19a2.9,2.9,0,0,1-.17,1.81c-2,4.12-13.22-.11-26,2-11.48,1.9-23.42,8.78-23,14,.36,4.46,9.71,7.08,13,8,16.76,4.69,31.92-.32,34-1,8-2.62,37-4.08,95-7,45.83-2.31,41.07,3,96,1,40.46-1.47,28.89-3.84,75-6,0,0,36.77-1.73,57-6.22C1043.52,252.05,1019.13,255.93,1014.66,256.64Z" transform="translate(0 0)"/><path class="cls-2" d="M836.5,236.5c-3.31,2.9-6.14,7.68-5,9,1.42,1.64,9-2.09,14-7,1.43-1.4,4.78-4.68,4-6C848.54,230.87,841.36,232.23,836.5,236.5Z" transform="translate(0 0)"/></g><g id="nuage2"><path class="cls-4" d="M963.26,792.87c-3.39-3.42-9.22-6.43-13.26-7.87-6.46-2.3-8.28-.54-17-3-9.66-2.72-9.67-5.5-17-7-9.29-1.9-12.46,1.91-18.11,1.52,4.82,1.1,9.84,2.26,15.11,3.48C936.39,785.42,953.11,789.31,963.26,792.87Z" transform="translate(0 0)"/><path class="cls-5" d="M344,785a36,36,0,0,1,14.87,8.69c7.48,1.13,15.69,2.23,24.47,3.22A28,28,0,0,1,390,788c17.71-15.54,55.35-7.49,67-5,7.32,1.57,15.12,3.86,23,0,7-3.44,8.2-8.87,13-15,15.08-19.24,45.34-19.07,58-19,11.07.06,28.86,2,30,8,.44,2.32-1.67,4.91-5,9a49.4,49.4,0,0,1-10,9c-7.12,4.61-27.31,1.14-47,9-1.22.49-15,6.2-22.53,18.44A24.46,24.46,0,0,0,500,809a23,23,0,0,0,3,3.22,32.37,32.37,0,0,1,7-6.22c17.84-11.54,50.51-5.09,61-1a13,13,0,0,0,7,1c7-1.11,10.21-8.64,13-12,13.2-15.91,63.37,5.77,66,0,1.85-4.06-23.57-13.54-23-26,.54-12,24.91-25.13,48-24,28.69,1.41,48.43,24.57,53,20,4.07-4.07-13.38-20.59-8-30,6.19-10.83,38.27-4.66,59,7,12.36,7,13.7,11.93,14,14,1.73,12-17.85,22.94-16,26,1.58,2.6,16.38-4.11,24-7,25.72-9.74,50.14-6.34,85.91,1.63-7.91-3-5.83-10.77-17.91-19.63-10.51-7.71-24.75-11.11-29-10a10.12,10.12,0,0,1-6,0,8.54,8.54,0,0,1-2-1c-5-10-22.19-41.35-60-58-32.65-14.38-73-14.41-103,3-12.81,7.43-40,27.45-43,42-.23,1.12-1.75,9-6,10-2.87.67-5.33-2.21-9-1-2.43.8-2.62,2.47-4,3-5.44,2.08-14.33-19.35-29-30-14.4-10.45-32.06-8.82-41-8-19.8,1.82-48.81,12.67-56,31-.95,2.43-4.47,12.51-10,13-2.23.2-7.6-.92-8-1-2.15-.45-3.71-.92-4-1-40.82-11.88-56,2-56,2-7.14,6.53-7.47,16-15,17-2.74.38-4.36-.65-9,0-5.54.77-7.75,2.86-11,4-11,3.85-17.67-8.85-29-6-6.24,1.57-5.5,5.75-15,11-10.81,6-18.86,4.49-19,6-.09.94,3,2.36,8.69,4C325.85,783.87,335.55,782.69,344,785Z" transform="translate(0 0)"/><path class="cls-6" d="M320.69,786c8,2.32,21.28,5.11,38.18,7.68A36,36,0,0,0,344,785C335.55,782.69,325.85,783.87,320.69,786Z" transform="translate(0 0)"/><path class="cls-6" d="M519,784c19.69-7.86,39.88-4.39,47-9a49.4,49.4,0,0,0,10-9c3.33-4.09,5.44-6.68,5-9-1.14-6-18.93-7.94-30-8-12.66-.07-42.92-.24-58,19-4.8,6.13-6,11.56-13,15-7.88,3.86-15.68,1.57-23,0-11.65-2.49-49.29-10.54-67,5a28,28,0,0,0-6.66,8.91c16.19,1.83,34.36,3.32,53.66,4.09,24.63,1,45,.56,59,0,.13.43.29.92.47,1.44C504,790.2,517.78,784.49,519,784Z" transform="translate(0 0)"/><path class="cls-6" d="M808,774c-7.62,2.89-22.42,9.6-24,7-1.85-3.06,17.73-14,16-26-.3-2.07-1.64-7-14-14-20.73-11.66-52.81-17.83-59-7-5.38,9.41,12.07,25.93,8,30-4.57,4.57-24.31-18.59-53-20-23.09-1.13-47.46,12-48,24-.57,12.46,24.85,21.94,23,26-2.63,5.77-52.8-15.91-66,0-2.79,3.36-6,10.89-13,12a13,13,0,0,1-7-1c-10.49-4.09-43.16-10.54-61,1a32.37,32.37,0,0,0-7,6.22c10,8.9,27.42,8.63,49,8.78,16.34.11,32.67,1.56,49,1,58-2,65.31,14.11,124,15,32.53.5,22.32-4.57,84-8,40.27-2.24,58.47-.85,93-7,7.52-1.34,64.14-11.42,64-24,0-1.71-1.1-3.47-2.74-5.13-10.15-3.56-26.87-7.45-50.26-12.87-5.27-1.22-10.29-2.38-15.11-3.48A13.21,13.21,0,0,1,895,776c-.39-.11-.74-.24-1.09-.37C858.14,767.66,833.72,764.26,808,774Z" transform="translate(0 0)"/><path class="cls-4" d="M1639.11,476.91a27,27,0,0,0-9.11-5.41c-4.44-1.57-5.69-.37-11.68-2.06-6.63-1.87-6.64-3.78-11.68-4.81-6.38-1.3-8.55,1.31-12.44,1.05,3.32.75,6.77,1.55,10.38,2.39C1620.65,471.79,1632.14,474.46,1639.11,476.91Z" transform="translate(0 0)"/><path class="cls-5" d="M1213.69,471.5a24.6,24.6,0,0,1,10.21,6c5.15.78,10.78,1.53,16.81,2.22a19.46,19.46,0,0,1,4.58-6.13c12.16-10.67,38-5.14,46-3.43,5,1.07,10.39,2.65,15.8,0,4.82-2.36,5.63-6.1,8.93-10.31,10.36-13.22,31.15-13.1,39.85-13.05,7.6.05,19.82,1.38,20.6,5.5.31,1.59-1.14,3.37-3.43,6.18a33.88,33.88,0,0,1-6.87,6.18c-4.89,3.17-18.76.79-32.29,6.19-.83.33-10.27,4.25-15.47,12.67a16.78,16.78,0,0,0,2.42,4.5,16.06,16.06,0,0,0,2.05,2.22,22,22,0,0,1,4.82-4.28c12.25-7.93,34.7-3.5,41.91-.69a8.88,8.88,0,0,0,4.8.69c4.82-.77,7-5.94,8.93-8.24,9.07-10.94,43.54,4,45.35,0,1.27-2.79-16.19-9.3-15.8-17.87.37-8.21,17.11-17.26,33-16.48,19.71,1,33.27,16.88,36.41,13.74,2.8-2.8-9.19-14.15-5.5-20.61,4.26-7.44,26.29-3.2,40.54,4.81,8.49,4.77,9.41,8.19,9.61,9.61,1.19,8.26-12.26,15.76-11,17.87,1.09,1.78,11.25-2.83,16.49-4.81,17.67-6.7,34.45-4.36,59,1.12-5.44-2.07-4-7.4-12.31-13.49-7.22-5.3-17-7.63-19.92-6.87a6.94,6.94,0,0,1-4.12,0,5.55,5.55,0,0,1-1.37-.69c-3.42-6.85-15.25-28.4-41.22-39.84-22.43-9.88-50.14-9.9-70.76,2.06-8.8,5.11-27.45,18.86-29.54,28.85-.16.77-1.2,6.19-4.12,6.87-2,.46-3.66-1.51-6.19-.68-1.67.54-1.79,1.69-2.74,2.06-3.74,1.42-9.85-13.3-19.93-20.61-9.89-7.18-22-6.06-28.16-5.5-13.61,1.25-33.54,8.7-38.47,21.3-.66,1.67-3.08,8.59-6.87,8.93a28.91,28.91,0,0,1-5.5-.69c-1.48-.31-2.55-.63-2.75-.68-28-8.16-38.47,1.37-38.47,1.37-4.9,4.48-5.13,11-10.3,11.68-1.89.26-3-.45-6.19,0-3.8.53-5.32,2-7.55,2.75-7.56,2.64-12.14-6.08-19.93-4.13-4.29,1.08-3.77,3.95-10.3,7.56-7.42,4.1-13,3.09-13,4.12-.06.65,2,1.62,6,2.76A27.5,27.5,0,0,1,1213.69,471.5Z" transform="translate(0 0)"/><path class="cls-6" d="M1197.67,472.2a224.65,224.65,0,0,0,26.23,5.27,24.6,24.6,0,0,0-10.21-6A27.5,27.5,0,0,0,1197.67,472.2Z" transform="translate(0 0)"/><path class="cls-6" d="M1333.91,470.82c13.53-5.4,27.4-3,32.29-6.19a33.88,33.88,0,0,0,6.87-6.18c2.29-2.81,3.74-4.59,3.43-6.18-.78-4.12-13-5.45-20.6-5.5-8.7,0-29.49-.17-39.85,13.05-3.3,4.21-4.11,7.95-8.93,10.31-5.41,2.65-10.77,1.07-15.8,0-8-1.71-33.87-7.24-46,3.43a19.46,19.46,0,0,0-4.58,6.13c11.13,1.25,23.61,2.28,36.87,2.81,16.92.67,30.94.38,40.53,0,.09.29.2.63.33,1C1323.64,475.07,1333.08,471.15,1333.91,470.82Z" transform="translate(0 0)"/><path class="cls-6" d="M1532.45,464c-5.24,2-15.4,6.59-16.49,4.81-1.27-2.11,12.18-9.61,11-17.87-.2-1.42-1.12-4.84-9.61-9.61-14.25-8-36.28-12.25-40.54-4.81-3.69,6.46,8.3,17.81,5.5,20.61-3.14,3.14-16.7-12.78-36.41-13.74-15.86-.78-32.6,8.27-33,16.48-.39,8.57,17.07,15.08,15.8,17.87-1.81,4-36.28-10.94-45.35,0-1.91,2.3-4.11,7.47-8.93,8.24a8.88,8.88,0,0,1-4.8-.69c-7.21-2.81-29.66-7.24-41.91.69a22,22,0,0,0-4.82,4.28c6.88,6.11,18.84,5.92,33.67,6,11.23.08,22.45,1.08,33.66.69,39.83-1.36,44.87,9.69,85.19,10.31,22.35.34,15.33-3.14,57.71-5.5,27.66-1.54,40.17-.58,63.89-4.81,5.17-.92,44.06-7.85,44-16.49a5.44,5.44,0,0,0-1.88-3.52c-7-2.45-18.46-5.12-34.53-8.84-3.61-.84-7.06-1.64-10.38-2.39a9.15,9.15,0,0,1-2-.36c-.27-.08-.51-.16-.75-.25C1566.9,459.59,1550.12,457.25,1532.45,464Z" transform="translate(0 0)"/></g><g id="nuage3"><path class="cls-4" d="M767.6,621.26c4.37.25,7.86,0,11.5-1.8Q774,620.42,767.6,621.26Z" transform="translate(0 0)"/><path class="cls-7" d="M471.5,591.5c14.91-.19,12.84-4.24,31-6,24.91-2.42,31.45,4.93,50,1,14.39-3,13-8,29-14,24.82-9.29,61.4-9.8,87,7,8.45,5.54,12.11,10.62,23,14,9.49,3,13.7,1.27,34,1,19.9-.26,30.22-.33,42,3,6.61,1.87,17.25,5.81,23.34,9.69A13.62,13.62,0,0,0,792,599c-2.72-13.2-34.71-22.37-60-18-3.28.57-8.16,3.58-14,2-6.81-1.84-8.86-7.52-16-14-5-4.57-9.69-6.72-19-11-8.75-4-60.8-28-92-7-7.26,4.88-11.33,10.81-21,12s-11.76-3.84-25-6c-5.93-1-25-4.07-38,6-6.38,4.93-8.77,11.06-15,11-4.27,0-4.93-2.94-11-4-7.86-1.37-14.48,2.14-16,3-5.94,3.35-4.75,6.36-10,9-6.43,3.24-9.81.4-19,2-7.73,1.35-18.63,5.68-19,11a4.14,4.14,0,0,0,.2,1.52,46.29,46.29,0,0,1,12.3-7C443.14,584.44,451.36,591.76,471.5,591.5Z" transform="translate(0 0)"/><path class="cls-8" d="M780,619a26.57,26.57,0,0,0,10.84-11.81c-6.09-3.88-16.73-7.82-23.34-9.69-11.78-3.33-22.1-3.26-42-3-20.3.27-24.51,2-34-1-10.89-3.38-14.55-8.46-23-14-25.6-16.8-62.18-16.29-87-7-16,6-14.61,11-29,14-18.55,3.93-25.09-3.42-50-1-18.16,1.76-16.09,5.81-31,6-20.14.26-28.36-7.06-42-2a46.29,46.29,0,0,0-12.3,7c1.27,4.33,8.75,8,11.8,9.48,19.24,9.23,29.7,2,57,4,26.5,2,37.5,10.43,57,3a56.82,56.82,0,0,0,10-5c50.78,23.65,77.69,20.82,93,13,4.31-2.2,8.33-5.12,16-7,20.83-5.11,29.41,7,58,8,15.19.51,14.32-2.86,32-2,6.58.32,11.48,1,15.6,1.26q6.4-.84,11.5-1.8C779.4,619.31,779.7,619.17,780,619Z" transform="translate(0 0)"/><path class="cls-4" d="M1737.75,867.39c4.37.26,7.86,0,11.5-1.8Q1744.17,866.57,1737.75,867.39Z" transform="translate(0 0)"/><path class="cls-7" d="M1441.65,837.64c14.91-.2,12.84-4.24,31-6,24.91-2.42,31.45,4.93,50,1,14.39-3,13-8,29-14,24.82-9.29,61.4-9.81,87,7,8.45,5.54,12.11,10.62,23,14,9.49,3,13.7,1.26,34,1,19.9-.26,30.22-.33,42,3,6.61,1.86,17.25,5.81,23.34,9.69a13.62,13.62,0,0,0,1.16-8.19c-2.72-13.2-34.71-22.37-60-18-3.28.57-8.16,3.58-14,2-6.81-1.84-8.86-7.52-16-14-5-4.57-9.69-6.72-19-11-8.75-4-60.8-28-92-7-7.26,4.88-11.33,10.81-21,12s-11.76-3.85-25-6c-5.93-1-25-4.07-38,6-6.38,4.93-8.77,11.05-15,11-4.27,0-4.93-2.94-11-4-7.86-1.37-14.48,2.14-16,3-5.94,3.35-4.75,6.35-10,9-6.43,3.24-9.81.39-19,2-7.73,1.35-18.63,5.68-19,11a4.17,4.17,0,0,0,.2,1.52,46.29,46.29,0,0,1,12.3-7C1413.3,830.58,1421.51,837.9,1441.65,837.64Z" transform="translate(0 0)"/><path class="cls-8" d="M1750.15,865.14A26.57,26.57,0,0,0,1761,853.33c-6.09-3.88-16.73-7.83-23.34-9.69-11.78-3.33-22.1-3.26-42-3-20.3.26-24.51,2-34-1-10.89-3.38-14.55-8.46-23-14-25.6-16.81-62.18-16.29-87-7-16,6-14.61,11-29,14-18.55,3.93-25.09-3.42-50-1-18.16,1.76-16.09,5.8-31,6-20.14.26-28.35-7.06-42-2a46.29,46.29,0,0,0-12.3,7c1.27,4.33,8.75,8,11.8,9.48,19.24,9.23,29.7,1.94,57,4,26.5,2,37.5,10.43,57,3a56.82,56.82,0,0,0,10-5c50.78,23.65,77.69,20.82,93,13,4.31-2.2,8.33-5.12,16-7,20.84-5.11,29.41,7,58,8,15.19.51,14.32-2.86,32-2,6.58.32,11.48,1,15.6,1.25q6.4-.82,11.5-1.8C1749.55,865.45,1749.85,865.31,1750.15,865.14Z" transform="translate(0 0)"/></g><g id="nuage4"><path class="cls-2" d="M663.33,308.51a53.63,53.63,0,0,1,13.17-5c18.27-4.26,28.42,6.62,40,0,7.55-4.31,5.33-10.14,13-13,10.07-3.76,19.53,4.19,25-1,2.14-2,1-3.52,3-7,5.78-9.92,22.38-10,25-10,11,0,24.34,4.29,25,10a6.65,6.65,0,0,1-1,4c-2.18,3.45-6.66,2.73-8,6-.09.22-.8,2,0,3,1.52,1.9,6.71-1.4,12-2,8.21-.93,11.32,5.25,21,9,10.12,3.92,13.59-.18,29,1A103,103,0,0,1,883.63,308c3.27-1.26,5.34-2.73,5.37-4,.07-2.74-9.91-6.84-19-7-5.38-.1-8.36,1.23-15,0-2.88-.53-4.18-1.12-7-1-4.84.21-6.83,2.22-9,1-1.9-1.06-1-2.94-3-6-3.58-5.46-10.7-6-11-6-3.34-.19-4.09,1.67-6,1-3.34-1.18-3.2-6.92-5-12-2.89-8.16-10.08-12.59-14-15-13.79-8.5-32.59-5.63-44,2-4.89,3.27-3.28,4-14,13-9.48,7.93-13.41,9.55-17,16-2.69,4.82-2.22,7-5,9-4.83,3.45-11.3.5-18-1-19-4.25-39.57,3.09-40,8A3.3,3.3,0,0,0,663.33,308.51Z" transform="translate(0 0)"/><path class="cls-9" d="M831.5,302.5c-9.68-3.75-12.79-9.93-21-9-5.29.6-10.48,3.9-12,2-.8-1-.09-2.78,0-3,1.34-3.27,5.82-2.55,8-6a6.65,6.65,0,0,0,1-4c-.66-5.71-14-10-25-10-2.62,0-19.22.08-25,10-2,3.48-.86,5-3,7-5.47,5.19-14.93-2.76-25,1-7.67,2.86-5.45,8.69-13,13-11.58,6.62-21.73-4.26-40,0a53.63,53.63,0,0,0-13.17,5c2.53,2.33,7.84,4.2,8.67,4.49,10.58,3.65,19.08.63,28-1,28-5.13,43.06,6.66,70,2a63.29,63.29,0,0,1,8-1c11.71-.66,15.47,2.66,27,4,6.54.76,16.31,1.89,27-2,5.69-2.07,7.14-4,13-5,7.36-1.28,10.8.59,18,1a53.23,53.23,0,0,0,20.63-3,103,103,0,0,0-23.13-4.53C845.09,302.32,841.62,306.42,831.5,302.5Z" transform="translate(0 0)"/><path class="cls-2" d="M1621.1,114.42a61.76,61.76,0,0,1,15.22-5.79c21.12-4.93,32.85,7.65,46.25,0,8.72-5,6.16-11.72,15-15,11.64-4.35,22.57,4.84,28.9-1.16,2.48-2.35,1.12-4.07,3.47-8.09,6.68-11.47,25.87-11.55,28.9-11.56,12.77-.05,28.14,4.95,28.9,11.56a7.56,7.56,0,0,1-1.15,4.62c-2.52,4-7.71,3.16-9.25,6.94-.1.25-.92,2.32,0,3.47,1.76,2.19,7.76-1.62,13.87-2.31,9.5-1.08,13.09,6.07,24.28,10.4,11.7,4.53,15.71-.2,33.53,1.16a120.16,120.16,0,0,1,26.75,5.23c3.77-1.45,6.16-3.15,6.2-4.65.08-3.18-11.46-7.91-22-8.1-6.22-.11-9.66,1.42-17.34,0-3.32-.61-4.84-1.29-8.09-1.15-5.6.24-7.9,2.56-10.41,1.15-2.19-1.22-1.15-3.39-3.47-6.93-4.13-6.32-12.37-6.92-12.71-6.94-3.86-.22-4.73,1.94-6.94,1.16-3.86-1.37-3.69-8-5.78-13.88-3.35-9.43-11.66-14.55-16.19-17.34-15.94-9.83-37.68-6.5-50.87,2.31-5.66,3.79-3.79,4.67-16.18,15-11,9.17-15.5,11-19.66,18.5-3.11,5.58-2.56,8.1-5.78,10.41-5.58,4-13.06.58-20.81-1.16-21.9-4.92-45.75,3.58-46.24,9.25A3.76,3.76,0,0,0,1621.1,114.42Z" transform="translate(0 0)"/><path class="cls-9" d="M1815.52,107.47c-11.19-4.33-14.78-11.48-24.28-10.4-6.11.69-12.11,4.5-13.87,2.31-.92-1.15-.1-3.22,0-3.47,1.54-3.78,6.73-3,9.25-6.94a7.56,7.56,0,0,0,1.15-4.62c-.76-6.61-16.13-11.61-28.9-11.56-3,0-22.22.09-28.9,11.56-2.35,4-1,5.74-3.47,8.09-6.33,6-17.26-3.19-28.9,1.16-8.87,3.31-6.31,10-15,15-13.4,7.65-25.13-4.93-46.25,0a61.76,61.76,0,0,0-15.22,5.79c2.92,2.69,9.06,4.86,10,5.19,12.23,4.23,22.06.73,32.37-1.15,32.43-5.93,49.78,7.7,80.93,2.31a71.54,71.54,0,0,1,9.25-1.16c13.53-.76,17.88,3.08,31.21,4.63,7.56.87,18.86,2.18,31.22-2.32,6.58-2.39,8.26-4.6,15-5.78,8.51-1.47,12.48.69,20.81,1.16a61.42,61.42,0,0,0,23.86-3.44,120.16,120.16,0,0,0-26.75-5.23C1831.23,107.27,1827.22,112,1815.52,107.47Z" transform="translate(0 0)"/></g><g id="nuage5"><path class="cls-2" d="M260.5,214.5c2.42-3.75.37-6.77,4-11,6.33-7.39,19.27-5.82,26-5,12.44,1.51,27.34,7.09,27,12-.2,3-5.78,2.9-14,10-2.77,2.39-10.51,9.08-9,13,1.79,4.63,15.59,3.16,17,3,15.5-1.76,18-9.71,31-11,12.72-1.26,21.86,5.16,23,3,1.55-2.94-18-13.53-16-19,1-2.82,6.57-1,16-5,8.7-3.73,8.29-7.16,15-9,9.1-2.5,17.95,1.59,21,3,9.59,4.43,14.19,11.41,16,10,.92-.72.18-2.62-1-10-1.09-6.76-1.63-10.14-1-11,3-4,14.28,3.68,40,10,6.2,1.52,9.89,2.14,11,5,2.9,7.49-15.9,20.12-14,23,2.25,3.4,28.54-14.15,38-6,4.05,3.49,2.82,9.81,7,11s6.58-4.63,14-6c6-1.11,7.18,2.17,15,3,12.89,1.36,20.73-6.39,24-3,2.53,2.62-2,7.38,0,11,4,7.12,26.68-2.49,52-2,11.11.22,24.35,2.41,33,5.26-1.64-3.1-6.54-5.42-9.45-6.76-8.32-3.84-16.81-5.07-32-5-19.86.09-27.51,2.3-32-3-3.1-3.65-.61-6.05-4-11-6.25-9.14-22.61-12.5-29-7-2.22,1.91-3.32,5-6,5-2.16,0-2.59-1.94-5-3-6.13-2.71-13.33,5.62-17,3-1.55-1.11-.3-2.62-2-5-3.15-4.4-9.44-2.09-13-6-2.4-2.64-2-6.38-2-8-.11-11.86-24.41-34.42-54-39-30.21-4.68-53,11.38-59,16a81.18,81.18,0,0,0-22,26,10.26,10.26,0,0,1-6,1c-4.43-.73-7.14-4.79-8-6-5.94-8.34-21.5-17.62-32-19-11.63-1.53-21.45,6.07-33,15-16.59,12.83-13.42,19-26,25-7.85,3.76-14.11,3.78-19.84,5.08C239.44,217.86,255.33,222.5,260.5,214.5Z" transform="translate(0 0)"/><path class="cls-10" d="M550.5,235.5c-2-3.62,2.53-8.38,0-11-3.27-3.39-11.11,4.36-24,3-7.82-.83-9-4.11-15-3-7.42,1.37-9.87,7.18-14,6s-2.95-7.51-7-11c-9.46-8.15-35.75,9.4-38,6-1.9-2.88,16.9-15.51,14-23-1.11-2.86-4.8-3.48-11-5-25.72-6.32-37-14-40-10-.63.86-.09,4.24,1,11,1.18,7.38,1.92,9.28,1,10-1.81,1.41-6.41-5.57-16-10-3.05-1.41-11.9-5.5-21-3-6.71,1.84-6.3,5.27-15,9-9.43,4-15,2.18-16,5-2,5.47,17.55,16.06,16,19-1.14,2.16-10.28-4.26-23-3-13,1.29-15.5,9.24-31,11-1.41.16-15.21,1.63-17-3-1.51-3.92,6.23-10.61,9-13,8.22-7.1,13.8-7,14-10,.34-4.91-14.56-10.49-27-12-6.73-.82-19.67-2.39-26,5-3.63,4.23-1.58,7.25-4,11-5.17,8-21.06,3.36-36.34,1.58A21.92,21.92,0,0,0,213,222c-.55.54-9.54,9.44-7,15,3.38,7.4,22.19-2,53,3,22.11,3.58,25.31,10.5,43,9,6.86-.58,13.86-2.26,25-1a82.47,82.47,0,0,1,20,5c30.12,10.72,71.71,11.36,93,5a78.83,78.83,0,0,1,13-3c9.82-1.38,18.35-.62,25,0,12.11,1.14,14.29,2.72,20,1s6-4.09,11-5c7.16-1.3,9.23,3,19,5,12,2.4,22.48-1.38,27-3,6.33-2.27,7.5-4,12-6,23.1-10.36,47.18,10.07,64,0,1.4-.84,4.89-3,5-6a4.45,4.45,0,0,0-.55-2.24c-8.6-2.85-21.84-5-33-5.26C577.18,233,554.52,242.62,550.5,235.5Z" transform="translate(0 0)"/></g></svg>